<svg width="183" height="28" viewBox="0 0 183 28" fill="none" xmlns="http://www.w3.org/2000/svg">
<path d="M27.4165 19.5832V7.83328H23.4998V3.91664H19.5832V0H7.83328V3.91664H3.91664V7.83328H15.6666V19.5832H27.4165Z" fill="#FFAE69"/>
<path d="M3.91664 7.83328L0 7.83328V11.7499H3.91664V7.83328Z" fill="#FFAE69"/>
<path d="M3.91664 23.4998H7.83328V15.6665H11.7499V11.7499H15.6666V7.83325H3.91664V11.7499H0V19.5832H3.91664V23.4998Z" fill="#FF8E2D"/>
<path d="M11.7499 23.4998L7.83328 23.4998L7.83328 27.4165H11.7499V23.4998Z" fill="#FF8E2D"/>
<path d="M7.83325 15.6665V23.4998H11.7499V27.4164H19.5832V23.4998H23.4998V19.5831H15.6665V15.6665H7.83325Z" fill="#D86401"/>
<path d="M40.2567 21.3338C38.4909 21.3338 37.1214 20.6595 36.1481 19.3108C35.1888 17.9482 34.7091 16.0504 34.7091 13.6172C34.7091 11.1562 35.1888 9.25141 36.1481 7.90274C37.1214 6.54017 38.4909 5.85889 40.2567 5.85889C42.0225 5.85889 43.3851 6.54017 44.3444 7.90274C45.3177 9.25141 45.8043 11.1562 45.8043 13.6172C45.8043 16.0504 45.3177 17.9482 44.3444 19.3108C43.3851 20.6595 42.0225 21.3338 40.2567 21.3338ZM40.2567 19.1857C41.2717 19.1857 42.0433 18.7129 42.5717 17.7675C43.1139 16.822 43.3851 15.4386 43.3851 13.6172C43.3851 11.7958 43.1139 10.4054 42.5717 9.44606C42.0433 8.4867 41.2717 8.00702 40.2567 8.00702C39.2417 8.00702 38.4631 8.4867 37.9209 9.44606C37.3925 10.4054 37.1284 11.7958 37.1284 13.6172C37.1284 15.4386 37.3925 16.822 37.9209 17.7675C38.4631 18.7129 39.2417 19.1857 40.2567 19.1857Z" fill="#09090B"/>
<path d="M46.6304 9.86317H48.7368L48.7785 11.6359C49.0983 10.9824 49.5363 10.4819 50.0924 10.1343C50.6625 9.7867 51.3229 9.61291 52.0737 9.61291C53.0609 9.61291 53.8951 9.87013 54.5764 10.3846C55.2577 10.899 55.7652 11.5942 56.0989 12.4701C56.4465 13.3461 56.6203 14.3332 56.6203 15.4316C56.6203 16.53 56.4465 17.5172 56.0989 18.3931C55.7652 19.2691 55.2577 19.9643 54.5764 20.4787C53.8951 20.9931 53.0609 21.2504 52.0737 21.2504C51.3646 21.2504 50.732 21.0974 50.1759 20.7915C49.6197 20.4718 49.1817 20.0268 48.862 19.4568V24.1284H46.6304V9.86317ZM51.594 19.2065C52.4283 19.2065 53.0818 18.8798 53.5545 18.2263C54.0272 17.5589 54.2636 16.6274 54.2636 15.4316C54.2636 14.2359 54.0272 13.3113 53.5545 12.6578C53.0818 11.9905 52.4283 11.6568 51.594 11.6568C50.7459 11.6568 50.0785 11.9835 49.5919 12.637C49.1053 13.2905 48.862 14.222 48.862 15.4316C48.862 16.6413 49.0983 17.5728 49.571 18.2263C50.0577 18.8798 50.732 19.2065 51.594 19.2065Z" fill="#09090B"/>
<path d="M62.4517 21.2504C61.4228 21.2504 60.5121 21.014 59.7196 20.5413C58.941 20.0546 58.3362 19.3734 57.9052 18.4974C57.4881 17.6215 57.2795 16.5996 57.2795 15.4316C57.2795 14.2637 57.4881 13.2418 57.9052 12.3659C58.3362 11.4899 58.941 10.8156 59.7196 10.3429C60.4982 9.85622 61.395 9.61291 62.41 9.61291C63.3694 9.61291 64.2314 9.84232 64.9961 10.3011C65.7747 10.7461 66.3795 11.4134 66.8105 12.3033C67.2555 13.1792 67.4779 14.2359 67.4779 15.4733V16.0156H59.6362C59.7196 17.0584 60.0046 17.8509 60.4913 18.3931C60.9779 18.9354 61.6314 19.2065 62.4517 19.2065C63.0635 19.2065 63.5779 19.0605 63.995 18.7685C64.4121 18.4627 64.718 18.0386 64.9127 17.4963L67.2694 17.7049C66.9357 18.7755 66.3448 19.6375 65.4966 20.291C64.6624 20.9306 63.6474 21.2504 62.4517 21.2504ZM65.0378 14.368C64.9405 13.4921 64.6555 12.8247 64.1827 12.3659C63.7239 11.8931 63.133 11.6568 62.41 11.6568C61.6731 11.6568 61.0683 11.8931 60.5955 12.3659C60.1228 12.8247 59.8169 13.4921 59.6779 14.368H65.0378Z" fill="#09090B"/>
<path d="M69.0757 9.86317H71.0987L71.1612 11.8236C71.4393 11.0867 71.8634 10.5375 72.4334 10.176C73.0174 9.80061 73.6917 9.61291 74.4564 9.61291C75.6243 9.61291 76.5142 9.99526 77.1259 10.76C77.7377 11.5247 78.0436 12.5397 78.0436 13.8049V21.0001H75.812V14.4097C75.812 13.4364 75.6521 12.7134 75.3324 12.2407C75.0126 11.768 74.4981 11.5316 73.789 11.5316C73.0521 11.5316 72.4543 11.7958 71.9954 12.3241C71.5366 12.8386 71.3072 13.5616 71.3072 14.4931V21.0001H69.0757V9.86317Z" fill="#09090B"/>
<path d="M79.683 19.0814H84.0419V11.7819H79.8916V9.86317H86.2943V19.0814H90.0275V21.0001H79.683V19.0814ZM83.9167 6.13001H86.2526V8.34071H83.9167V6.13001Z" fill="#09090B"/>
<path d="M91.1664 9.86317H93.1894L93.2519 11.8236C93.53 11.0867 93.9541 10.5375 94.5241 10.176C95.1081 9.80061 95.7824 9.61291 96.5471 9.61291C97.715 9.61291 98.6049 9.99526 99.2167 10.76C99.8284 11.5247 100.134 12.5397 100.134 13.8049V21.0001H97.9027V14.4097C97.9027 13.4364 97.7428 12.7134 97.4231 12.2407C97.1033 11.768 96.5888 11.5316 95.8797 11.5316C95.1428 11.5316 94.545 11.7958 94.0862 12.3241C93.6273 12.8386 93.3979 13.5616 93.3979 14.4931V21.0001H91.1664V9.86317Z" fill="#09090B"/>
<path d="M105.069 21.2504C104.388 21.2504 103.755 21.1252 103.171 20.875C102.601 20.6108 102.149 20.2423 101.815 19.7696C101.482 19.2969 101.315 18.7477 101.315 18.122C101.315 17.2044 101.6 16.4814 102.17 15.953C102.74 15.4247 103.588 15.0423 104.714 14.806L108.26 14.076C108.26 12.4632 107.551 11.6568 106.133 11.6568C104.867 11.6568 104.096 12.2199 103.818 13.3461L101.503 13.2001C101.711 12.1017 102.219 11.2327 103.025 10.5931C103.845 9.93965 104.881 9.61291 106.133 9.61291C107.523 9.61291 108.594 10.0161 109.344 10.8225C110.109 11.629 110.491 12.7552 110.491 14.2012V18.3514C110.491 18.6156 110.547 18.8033 110.658 18.9145C110.769 19.0258 110.95 19.0814 111.201 19.0814H111.826V21.0001C111.381 21.0557 111.055 21.0835 110.846 21.0835C109.525 21.0835 108.74 20.5065 108.489 19.3525C108.225 19.9226 107.78 20.3814 107.155 20.729C106.543 21.0766 105.848 21.2504 105.069 21.2504ZM105.361 19.3316C106.279 19.3316 106.988 19.0953 107.488 18.6226C108.003 18.1498 108.26 17.4963 108.26 16.6621V15.8487L105.277 16.4536C104.694 16.5648 104.276 16.7386 104.026 16.975C103.776 17.2113 103.651 17.5381 103.651 17.9552C103.651 18.4001 103.797 18.7407 104.089 18.9771C104.381 19.2135 104.805 19.3316 105.361 19.3316Z" fill="#09090B"/>
<path d="M113.111 19.0814H115.864V11.7819H113.111V9.86317H117.47L117.616 11.9905C117.797 11.2814 118.109 10.753 118.554 10.4054C119.013 10.0439 119.597 9.86317 120.306 9.86317H122.746V11.8445H120.473C118.888 11.8445 118.096 12.6995 118.096 14.4097V19.0814H121.495V21.0001H113.111V19.0814Z" fill="#09090B"/>
<path d="M124.928 22.2097H126.346C126.722 22.2097 127 22.1541 127.181 22.0429C127.375 21.9317 127.528 21.737 127.639 21.4589L127.994 20.5413H127.306L123.301 9.86317H125.721L128.766 18.3931L131.602 9.86317H134.021L129.641 22.1263C129.391 22.8354 129.023 23.3429 128.536 23.6488C128.05 23.9686 127.403 24.1284 126.597 24.1284H124.928V22.2097Z" fill="#09090B"/>
<path d="M140.145 7.10713H143.649C144.928 7.10713 146.041 7.39911 146.986 7.98307C147.945 8.55312 148.682 9.40125 149.197 10.5275C149.725 11.6398 149.989 12.9745 149.989 14.5317C149.989 16.089 149.725 17.4237 149.197 18.536C148.682 19.6483 147.945 20.4895 146.986 21.0596C146.041 21.6296 144.928 21.9146 143.649 21.9146H140.145V7.10713ZM143.545 20.2045C145.005 20.2045 146.131 19.7248 146.923 18.7654C147.716 17.7922 148.112 16.3809 148.112 14.5317C148.112 12.6686 147.716 11.2505 146.923 10.2772C146.131 9.30392 145.005 8.81729 143.545 8.81729H141.939V20.2045H143.545Z" fill="#52525C"/>
<path d="M155.57 22.1649C154.555 22.1649 153.666 21.9286 152.901 21.4558C152.15 20.9831 151.566 20.3157 151.149 19.4537C150.732 18.5777 150.523 17.5558 150.523 16.3879C150.523 15.22 150.732 14.205 151.149 13.343C151.566 12.467 152.15 11.7927 152.901 11.32C153.666 10.8472 154.555 10.6109 155.57 10.6109C156.571 10.6109 157.454 10.8472 158.219 11.32C158.984 11.7927 159.575 12.467 159.992 13.343C160.409 14.205 160.617 15.22 160.617 16.3879C160.617 17.5558 160.409 18.5777 159.992 19.4537C159.575 20.3157 158.984 20.9831 158.219 21.4558C157.454 21.9286 156.571 22.1649 155.57 22.1649ZM155.57 20.4965C156.585 20.4965 157.371 20.135 157.927 19.412C158.497 18.6751 158.782 17.667 158.782 16.3879C158.782 15.1088 158.497 14.1077 157.927 13.3847C157.371 12.6478 156.585 12.2793 155.57 12.2793C154.555 12.2793 153.763 12.6408 153.193 13.3638C152.637 14.0868 152.359 15.0948 152.359 16.3879C152.359 17.6809 152.637 18.689 153.193 19.412C153.763 20.135 154.555 20.4965 155.57 20.4965Z" fill="#52525C"/>
<path d="M166.908 22.1649C165.893 22.1649 164.996 21.9286 164.217 21.4558C163.453 20.9831 162.862 20.3088 162.445 19.4328C162.027 18.5569 161.819 17.5419 161.819 16.3879C161.819 15.2339 162.027 14.2189 162.445 13.343C162.862 12.467 163.453 11.7927 164.217 11.32C164.996 10.8472 165.893 10.6109 166.908 10.6109C168.145 10.6109 169.167 10.9446 169.973 11.612C170.794 12.2793 171.315 13.2248 171.538 14.4483L169.702 14.5735C169.536 13.8505 169.202 13.2874 168.701 12.8841C168.215 12.4809 167.617 12.2793 166.908 12.2793C165.893 12.2793 165.093 12.6478 164.509 13.3847C163.939 14.1077 163.654 15.1088 163.654 16.3879C163.654 17.667 163.939 18.6751 164.509 19.412C165.093 20.135 165.893 20.4965 166.908 20.4965C167.645 20.4965 168.263 20.281 168.764 19.8499C169.278 19.4189 169.619 18.8002 169.786 17.9938L171.621 18.1189C171.385 19.3564 170.842 20.3435 169.994 21.0804C169.16 21.8034 168.131 22.1649 166.908 22.1649Z" fill="#52525C"/>
<path d="M177.87 22.1649C176.938 22.1649 176.118 22.005 175.409 21.6852C174.713 21.3515 174.164 20.9066 173.761 20.3505C173.358 19.7804 173.128 19.1408 173.073 18.4318L174.908 18.3066C175.019 19.0018 175.325 19.5441 175.826 19.9334C176.326 20.3088 177.008 20.4965 177.87 20.4965C178.704 20.4965 179.343 20.3783 179.788 20.1419C180.233 19.8917 180.456 19.5232 180.456 19.0366C180.456 18.7029 180.379 18.4387 180.226 18.2441C180.073 18.0355 179.788 17.8617 179.371 17.7227C178.968 17.5697 178.356 17.4237 177.536 17.2847C176.479 17.1039 175.645 16.8676 175.033 16.5756C174.435 16.2836 174.004 15.9291 173.74 15.512C173.49 15.0948 173.365 14.5735 173.365 13.9478C173.365 12.9606 173.733 12.1612 174.47 11.5494C175.207 10.9237 176.236 10.6109 177.557 10.6109C178.85 10.6109 179.872 10.9446 180.623 11.612C181.387 12.2793 181.86 13.1275 182.041 14.1563L180.205 14.2815C180.08 13.6697 179.781 13.1831 179.309 12.8216C178.85 12.4601 178.259 12.2793 177.536 12.2793C176.757 12.2793 176.166 12.4323 175.763 12.7382C175.36 13.044 175.158 13.4472 175.158 13.9478C175.158 14.3232 175.249 14.6221 175.43 14.8446C175.61 15.0531 175.888 15.2269 176.264 15.366C176.653 15.4911 177.202 15.6162 177.911 15.7414C179.051 15.9221 179.934 16.1515 180.56 16.4296C181.186 16.7077 181.624 17.0553 181.874 17.4724C182.124 17.8756 182.249 18.397 182.249 19.0366C182.249 19.9959 181.839 20.7606 181.019 21.3307C180.199 21.8868 179.149 22.1649 177.87 22.1649Z" fill="#52525C"/>
</svg>
